<?xml version="1.0" encoding="utf-8"?>
<!-- Generator: Adobe Illustrator 21.0.0, SVG Export Plug-In . SVG Version: 6.00 Build 0)  -->
<svg version="1.1" id="Calque_1" xmlns="http://www.w3.org/2000/svg" xmlns:xlink="http://www.w3.org/1999/xlink" x="0px" y="0px"
	 viewBox="0 0 384 387" style="enable-background:new 0 0 384 387;" xml:space="preserve">
<style type="text/css">
	.st0{fill:none;}
	.st1{fill:#EBC179;}
	.st2{fill:#E2AC59;}
	.st3{fill:#FFFFFF;}
</style>
<path class="st0" d="M0,0"/>
<path class="st0" d="M0,0"/>
<path class="st0" d="M0,0"/>
<path class="st0" d="M0,0"/>
<path class="st0" d="M0,0"/>
<g>
	<g>
		<path class="st1" d="M363.1,161.8c0,35.5-81.2,79.4-181.3,98.1C81.8,278.7,0.6,265.1,0.6,229.6c0-35.5,81.2-79.4,181.3-98.1
			S363.1,126.3,363.1,161.8z"/>
		<path class="st2" d="M190.5,241.5C90.4,260.2,9.3,246.7,9.3,211.2c0-1,0.1-2.1,0.2-3.1c-5.8,7.3-8.9,14.6-8.9,21.5
			c0,35.5,81.2,49,181.3,30.3c97.2-18.2,176.5-60.1,181-95C339.3,195.1,271,226.4,190.5,241.5z"/>
		<g>
			<path class="st3" d="M126.1,214c-0.8-0.8-1.6-1.8-2.5-2.8c-0.8-1-1.8-2-2.7-3.2c-0.9-1.1-1.8-2.3-2.8-3.5c-1-1.2-1.9-2.5-2.9-3.8
				c-1-1.3-1.9-2.7-2.9-4.1c-0.5-0.7-1-1.4-1.5-2.2c-0.5-0.7-0.9-1.5-1.4-2.3c-0.5-0.8-1-1.5-1.4-2.3c-0.5-0.8-0.9-1.6-1.4-2.4
				c-0.5-0.8-0.9-1.6-1.4-2.4c-0.4-0.8-0.9-1.6-1.3-2.5c-0.4-0.8-0.9-1.6-1.3-2.5c-0.4-0.8-0.8-1.7-1.3-2.5
				c-0.9-1.7-1.6-3.4-2.4-5.1c-0.8-1.7-1.5-3.5-2.2-5.2c-0.7-1.8-1.4-3.5-2-5.2c-0.6-1.8-1.3-3.5-1.8-5.2c0-0.1-0.1-0.3-0.1-0.4
				c-2.5,1-5,2-7.5,3c0.1,0.1,0.1,0.2,0.2,0.3c0.8,1.7,1.6,3.5,2.4,5.2c0.9,1.7,1.8,3.5,2.7,5.2c1,1.7,1.9,3.5,2.9,5.2
				c1,1.7,2,3.4,3,5c0.5,0.8,1,1.7,1.6,2.5c0.5,0.8,1.1,1.6,1.6,2.4c0.5,0.8,1.1,1.6,1.6,2.4c0.6,0.8,1.1,1.5,1.7,2.3
				c0.6,0.8,1.1,1.5,1.7,2.3c0.6,0.7,1.1,1.5,1.7,2.2c0.6,0.7,1.1,1.4,1.7,2.1c0.6,0.7,1.1,1.4,1.7,2c1.1,1.4,2.2,2.7,3.4,3.9
				c1.1,1.2,2.2,2.5,3.3,3.6c1.1,1.1,2.2,2.2,3.2,3.3c1,1,2.1,2,3,2.9c1,0.9,1.9,1.8,2.8,2.6c1.8,1.5,3.3,3,4.6,4
				c2.6,2.1,4.1,3.4,4.1,3.4s-1.4-1.4-3.8-3.7C129,217.3,127.7,215.7,126.1,214z M195.7,203.5c-0.8-0.8-1.6-1.8-2.5-2.8
				c-0.8-1-1.8-2-2.7-3.2c-0.9-1.1-1.8-2.3-2.8-3.5c-1-1.2-1.9-2.5-2.9-3.8c-1-1.3-1.9-2.7-2.9-4.1c-0.5-0.7-1-1.4-1.5-2.2
				c-0.5-0.7-0.9-1.5-1.4-2.3c-0.5-0.8-1-1.5-1.4-2.3c-0.5-0.8-0.9-1.6-1.4-2.4c-0.5-0.8-0.9-1.6-1.4-2.4c-0.4-0.8-0.9-1.6-1.3-2.5
				c-0.4-0.8-0.9-1.6-1.3-2.5c-0.4-0.8-0.8-1.7-1.3-2.5c-0.9-1.7-1.6-3.4-2.4-5.1c-0.8-1.7-1.5-3.5-2.2-5.2c-0.7-1.8-1.4-3.5-2-5.2
				c-0.6-1.8-1.3-3.5-1.8-5.2c-0.3-0.9-0.6-1.7-0.8-2.6c-0.3-0.9-0.5-1.7-0.8-2.6c-0.5-1.7-1-3.4-1.4-5.1c-3,0.7-6,1.4-9,2.1
				c0.7,1.9,1.4,3.8,2.3,5.8c0.4,0.9,0.7,1.7,1.1,2.6c0.4,0.9,0.8,1.7,1.2,2.6c0.8,1.7,1.6,3.5,2.4,5.2c0.9,1.7,1.8,3.5,2.7,5.2
				c1,1.7,1.9,3.5,2.9,5.2c1,1.7,2,3.4,3,5c0.5,0.8,1,1.7,1.6,2.5c0.5,0.8,1.1,1.6,1.6,2.4c0.5,0.8,1.1,1.6,1.6,2.4
				c0.6,0.8,1.1,1.5,1.7,2.3c0.6,0.8,1.1,1.5,1.7,2.3c0.6,0.7,1.1,1.5,1.7,2.2c0.6,0.7,1.1,1.4,1.7,2.1c0.6,0.7,1.1,1.4,1.7,2
				c1.1,1.4,2.2,2.7,3.4,3.9c1.1,1.2,2.2,2.5,3.3,3.6c1.1,1.1,2.2,2.2,3.2,3.3c1,1,2.1,2,3,2.9c1,0.9,1.9,1.8,2.8,2.6
				c1.8,1.5,3.3,3,4.6,4c2.6,2.1,4.1,3.4,4.1,3.4s-1.4-1.4-3.8-3.7C198.7,206.8,197.3,205.2,195.7,203.5z M269.5,197.4
				c-1.2-1.2-2.6-2.7-4.2-4.4c-0.8-0.8-1.6-1.8-2.5-2.8c-0.8-1-1.8-2-2.7-3.2c-0.9-1.1-1.8-2.3-2.8-3.5c-1-1.2-1.9-2.5-2.9-3.8
				c-1-1.3-1.9-2.7-2.9-4.1c-0.5-0.7-1-1.4-1.5-2.2c-0.5-0.7-0.9-1.5-1.4-2.3c-0.5-0.8-1-1.5-1.4-2.3c-0.5-0.8-0.9-1.6-1.4-2.4
				c-0.5-0.8-0.9-1.6-1.4-2.4c-0.4-0.8-0.9-1.6-1.3-2.5c-0.4-0.8-0.9-1.6-1.3-2.5c-0.4-0.8-0.8-1.7-1.3-2.5
				c-0.9-1.7-1.6-3.4-2.4-5.1c-0.8-1.7-1.5-3.5-2.2-5.2c-0.7-1.8-1.4-3.5-2-5.2c-0.6-1.8-1.3-3.5-1.8-5.2c-0.3-0.9-0.6-1.7-0.8-2.6
				c-0.3-0.9-0.5-1.7-0.8-2.6c-0.6-2-1.1-3.9-1.6-5.8c-3.1,0.3-6.3,0.6-9.5,1c0.9,2.5,1.9,5.1,3,7.7c0.4,0.9,0.7,1.7,1.1,2.6
				c0.4,0.9,0.8,1.7,1.2,2.6c0.8,1.7,1.6,3.5,2.4,5.2c0.9,1.7,1.8,3.5,2.7,5.2c1,1.7,1.9,3.5,2.9,5.2c1,1.7,2,3.4,3,5
				c0.5,0.8,1,1.7,1.6,2.5c0.5,0.8,1.1,1.6,1.6,2.4c0.5,0.8,1.1,1.6,1.6,2.4c0.6,0.8,1.1,1.5,1.7,2.3c0.6,0.8,1.1,1.5,1.7,2.3
				c0.6,0.7,1.1,1.5,1.7,2.2c0.6,0.7,1.1,1.4,1.7,2.1c0.6,0.7,1.1,1.4,1.7,2c1.1,1.4,2.2,2.7,3.4,3.9c1.1,1.2,2.2,2.5,3.3,3.6
				c1.1,1.1,2.2,2.2,3.2,3.3c1,1,2.1,2,3,2.9c1,0.9,1.9,1.8,2.8,2.6c1.8,1.5,3.3,3,4.6,4c2.6,2.1,4.1,3.4,4.1,3.4
				S271.9,199.8,269.5,197.4z"/>
		</g>
	</g>
	<g>
		<path class="st1" d="M377.6,279.1c-23.5,26.5-113.4,5.5-200.7-47S38,115.6,61.5,89.1c23.5-26.5,113.4-5.5,200.7,47
			C349.5,188.5,401.2,252.5,377.6,279.1z"/>
		<path class="st2" d="M195.7,224.1c-87.3-52.5-139-116.5-115.4-143c0.7-0.8,1.4-1.5,2.2-2.2c-9.2,1.7-16.3,5-20.9,10.2
			c-23.5,26.5,28.1,90.5,115.4,143c84.8,50.9,171.9,72.2,198.5,49.2C337.7,288.1,265.9,266.3,195.7,224.1z"/>
		<g>
			<path class="st3" d="M165.7,160.7c0-1.2,0-2.4,0-3.7c0-1.3,0-2.7,0.1-4.1c0.1-1.4,0.2-2.9,0.3-4.5c0.1-1.5,0.3-3.1,0.4-4.8
				c0.1-1.6,0.4-3.3,0.6-5c0.1-0.9,0.2-1.7,0.3-2.6c0.1-0.9,0.3-1.7,0.4-2.6c0.1-0.9,0.3-1.8,0.4-2.7c0.2-0.9,0.4-1.8,0.5-2.7
				c0.2-0.9,0.4-1.8,0.6-2.7c0.2-0.9,0.4-1.8,0.6-2.7c0.2-0.9,0.4-1.8,0.7-2.7c0.2-0.9,0.5-1.8,0.7-2.7c0.5-1.8,1.1-3.6,1.6-5.4
				c0.5-1.8,1.2-3.6,1.8-5.4c0.6-1.8,1.3-3.5,2-5.3c0.7-1.7,1.4-3.4,2.1-5.1c0.1-0.1,0.1-0.3,0.2-0.4c-2.6-1-5.1-1.9-7.6-2.7
				c0,0.1-0.1,0.2-0.1,0.4c-0.6,1.8-1.1,3.7-1.6,5.5c-0.5,1.9-1,3.8-1.5,5.7c-0.4,1.9-0.9,3.8-1.3,5.8c-0.4,1.9-0.8,3.9-1.1,5.8
				c-0.2,1-0.3,1.9-0.5,2.9c-0.1,1-0.3,1.9-0.4,2.9c-0.1,1-0.3,1.9-0.4,2.9c-0.1,1-0.2,1.9-0.3,2.8c-0.1,0.9-0.2,1.9-0.3,2.8
				c-0.1,0.9-0.1,1.9-0.2,2.8c-0.1,0.9-0.1,1.8-0.2,2.7c0,0.9-0.1,1.8-0.1,2.7c-0.1,1.8-0.1,3.5-0.1,5.2c0,1.7,0,3.3,0.1,4.9
				c0.1,1.6,0.1,3.1,0.2,4.5c0.1,1.5,0.2,2.8,0.3,4.2c0.1,1.3,0.2,2.6,0.4,3.7c0.3,2.3,0.5,4.4,0.8,6.1c0.5,3.3,0.9,5.2,0.9,5.2
				s-0.1-1.9-0.3-5.3C165.7,165.1,165.8,163.1,165.7,160.7z M224.8,199.1c0-1.2,0-2.4,0-3.7c0-1.3,0-2.7,0.1-4.1
				c0.1-1.4,0.2-2.9,0.3-4.5c0.1-1.5,0.3-3.1,0.4-4.8c0.1-1.6,0.4-3.3,0.6-5c0.1-0.9,0.2-1.7,0.3-2.6c0.1-0.9,0.3-1.7,0.4-2.6
				c0.1-0.9,0.3-1.8,0.4-2.7c0.2-0.9,0.4-1.8,0.5-2.7c0.2-0.9,0.4-1.8,0.6-2.7c0.2-0.9,0.4-1.8,0.6-2.7c0.2-0.9,0.4-1.8,0.7-2.7
				c0.2-0.9,0.5-1.8,0.7-2.7c0.5-1.8,1.1-3.6,1.6-5.4c0.5-1.8,1.2-3.6,1.8-5.4c0.6-1.8,1.3-3.5,2-5.3c0.7-1.7,1.4-3.4,2.1-5.1
				c0.4-0.8,0.7-1.7,1.1-2.5c0.4-0.8,0.8-1.6,1.1-2.4c0.8-1.6,1.5-3.2,2.3-4.7c-2.7-1.5-5.4-2.9-8.1-4.3c-0.7,1.9-1.5,3.8-2.2,5.8
				c-0.3,0.9-0.6,1.8-0.9,2.6c-0.3,0.9-0.6,1.8-0.9,2.7c-0.6,1.8-1.1,3.7-1.6,5.5c-0.5,1.9-1,3.8-1.5,5.7c-0.4,1.9-0.9,3.8-1.3,5.8
				c-0.4,1.9-0.8,3.9-1.1,5.8c-0.2,1-0.3,1.9-0.5,2.9c-0.1,1-0.3,1.9-0.4,2.9c-0.1,1-0.3,1.9-0.4,2.9c-0.1,1-0.2,1.9-0.3,2.8
				c-0.1,0.9-0.2,1.9-0.3,2.8c-0.1,0.9-0.1,1.9-0.2,2.8c-0.1,0.9-0.1,1.8-0.2,2.7c0,0.9-0.1,1.8-0.1,2.7c-0.1,1.8-0.1,3.5-0.1,5.2
				c0,1.7,0,3.3,0.1,4.9c0.1,1.6,0.1,3.1,0.2,4.5c0.1,1.5,0.2,2.8,0.3,4.2c0.1,1.3,0.2,2.6,0.4,3.7c0.3,2.3,0.5,4.4,0.8,6.1
				c0.5,3.3,0.9,5.2,0.9,5.2s-0.1-1.9-0.3-5.3C224.8,203.5,224.8,201.5,224.8,199.1z M284,243.6c-0.1-1.7-0.1-3.7-0.2-6.1
				c0-1.2,0-2.4,0-3.7c0-1.3,0-2.7,0.1-4.1c0.1-1.4,0.2-2.9,0.3-4.5c0.1-1.5,0.3-3.1,0.4-4.8c0.1-1.6,0.4-3.3,0.6-5
				c0.1-0.9,0.2-1.7,0.3-2.6c0.1-0.9,0.3-1.7,0.4-2.6c0.1-0.9,0.3-1.8,0.4-2.7c0.2-0.9,0.4-1.8,0.5-2.7c0.2-0.9,0.4-1.8,0.6-2.7
				c0.2-0.9,0.4-1.8,0.6-2.7c0.2-0.9,0.4-1.8,0.7-2.7c0.2-0.9,0.5-1.8,0.7-2.7c0.5-1.8,1.1-3.6,1.6-5.4c0.5-1.8,1.2-3.6,1.8-5.4
				c0.6-1.8,1.3-3.5,2-5.3c0.7-1.7,1.4-3.4,2.1-5.1c0.4-0.8,0.7-1.7,1.1-2.5c0.4-0.8,0.8-1.6,1.1-2.4c0.9-1.9,1.8-3.7,2.7-5.4
				c-2.5-1.9-5.1-3.7-7.7-5.6c-1,2.5-2,5.1-2.9,7.7c-0.3,0.9-0.6,1.8-0.9,2.6c-0.3,0.9-0.6,1.8-0.9,2.7c-0.6,1.8-1.1,3.7-1.6,5.5
				c-0.5,1.9-1,3.8-1.5,5.7c-0.4,1.9-0.9,3.8-1.3,5.8c-0.4,1.9-0.8,3.9-1.1,5.8c-0.2,1-0.3,1.9-0.5,2.9c-0.1,1-0.3,1.9-0.4,2.9
				c-0.1,1-0.3,1.9-0.4,2.9c-0.1,1-0.2,1.9-0.3,2.8c-0.1,0.9-0.2,1.9-0.3,2.8c-0.1,0.9-0.1,1.9-0.2,2.8c-0.1,0.9-0.1,1.8-0.2,2.7
				c0,0.9-0.1,1.8-0.1,2.7c-0.1,1.8-0.1,3.5-0.1,5.2c0,1.7,0,3.3,0.1,4.9c0.1,1.6,0.1,3.1,0.2,4.5c0.1,1.5,0.2,2.8,0.3,4.2
				c0.1,1.3,0.2,2.6,0.4,3.7c0.3,2.3,0.5,4.4,0.8,6.1c0.5,3.3,0.9,5.2,0.9,5.2S284.2,247,284,243.6z"/>
		</g>
	</g>
</g>
</svg>
